<?xml version="1.0" standalone="no"?>
<!DOCTYPE svg PUBLIC "-//W3C//DTD SVG 20010904//EN"
 "http://www.w3.org/TR/2001/REC-SVG-20010904/DTD/svg10.dtd">
<svg version="1.0" xmlns="http://www.w3.org/2000/svg"
 width="512.000000pt" height="432.000000pt" viewBox="0 0 512.000000 432.000000"
 preserveAspectRatio="xMidYMid meet">
<metadata>
Created by potrace 1.15, written by Peter Selinger 2001-2017
</metadata>
<g transform="translate(0.000000,432.000000) scale(0.100000,-0.100000)"
fill="#000000" stroke="none">
<path d="M1610 3637 l0 -62 -48 -17 c-69 -25 -126 -70 -159 -125 -25 -43 -28
-57 -28 -138 0 -81 3 -95 28 -138 39 -66 96 -100 249 -147 109 -35 131 -45
158 -77 28 -31 31 -42 27 -76 -7 -48 -38 -84 -86 -97 -93 -26 -180 4 -211 72
-11 24 -20 51 -20 62 0 11 -5 16 -13 13 -7 -3 -48 -11 -90 -17 l-77 -13 6 -36
c21 -121 99 -206 211 -229 l38 -8 3 -57 3 -57 84 0 85 0 0 60 c0 56 2 60 23
60 38 0 141 55 175 94 50 57 65 101 65 191 1 156 -57 215 -280 284 -57 17
-115 42 -132 56 -95 80 -33 207 94 192 61 -6 94 -32 108 -84 l12 -45 55 6 c30
4 71 9 91 12 l37 5 -12 53 c-7 30 -23 70 -36 91 -28 45 -100 93 -152 102 l-38
6 0 63 0 64 -85 0 -85 0 0 -63z"/>
<path d="M2560 3569 c-118 -7 -199 -21 -312 -51 l-78 -21 0 -163 c0 -90 3
-165 8 -167 4 -3 45 8 92 23 326 107 694 77 1002 -82 90 -46 246 -151 262
-176 3 -5 -75 -60 -174 -122 -99 -62 -179 -115 -177 -117 6 -5 849 -194 852
-191 4 4 194 852 192 854 -1 1 -90 -54 -197 -122 -107 -68 -199 -124 -205
-124 -5 0 -27 18 -50 39 -76 74 -228 180 -346 241 -268 138 -556 198 -869 179z"/>
<path d="M2479 2841 c-325 -69 -591 -320 -689 -651 -43 -147 -37 -412 13 -532
l12 -28 69 95 c38 52 73 92 76 88 4 -5 32 -129 64 -278 31 -148 59 -277 62
-286 6 -21 151 -115 226 -146 167 -69 363 -90 532 -59 288 55 547 257 667 521
60 134 74 204 73 380 0 133 -4 173 -22 239 -26 95 -87 224 -135 286 l-34 45
-261 64 c-187 46 -259 68 -252 76 5 6 45 35 90 65 44 30 80 57 80 60 0 11
-123 50 -203 65 -104 20 -262 18 -368 -4z"/>
<path d="M1169 2572 c-6 -15 -19 -49 -30 -77 -28 -72 -66 -226 -80 -325 -17
-119 -14 -365 5 -480 43 -265 152 -518 312 -730 l83 -110 -125 -191 c-69 -105
-124 -192 -122 -193 3 -3 850 175 856 179 2 1 -175 839 -181 856 -1 4 -55 -76
-121 -177 -65 -101 -122 -182 -126 -179 -17 10 -98 142 -139 223 -91 182 -134
365 -134 577 0 142 19 269 56 387 l23 73 -133 98 -134 97 -10 -28z"/>
<path d="M4146 2450 c-21 -60 -41 -110 -45 -110 -3 0 -48 11 -99 24 -83 22
-93 22 -87 8 18 -46 45 -162 56 -233 6 -45 16 -79 23 -79 55 -1 306 36 306 44
0 68 -63 334 -97 414 l-18 42 -39 -110z"/>
<path d="M4115 1978 c-96 -34 -139 -108 -133 -229 l3 -79 -47 0 -48 0 0 -45 0
-45 54 0 c58 0 66 -7 66 -58 -1 -46 -36 -107 -84 -148 -39 -33 -46 -44 -44
-69 l3 -30 238 -3 237 -2 0 55 0 55 -157 0 -156 0 21 23 c30 32 52 90 52 137
l0 40 70 0 70 0 0 45 0 45 -74 0 c-85 0 -86 1 -86 86 0 60 19 107 49 124 24
12 101 13 134 1 22 -9 24 -6 33 40 10 48 10 48 -19 59 -38 13 -143 12 -182 -2z"/>
<path d="M3777 1096 c-80 -29 -158 -113 -180 -193 -10 -40 -14 -43 -44 -43
-30 0 -33 -3 -33 -30 0 -27 3 -30 31 -30 27 0 30 -3 27 -27 -2 -22 -9 -29 -30
-31 -23 -3 -28 -8 -28 -31 0 -24 4 -28 26 -27 29 1 34 -5 60 -78 23 -65 82
-128 147 -157 67 -29 172 -32 238 -6 l47 18 -11 42 c-5 23 -11 43 -11 44 -1 1
-20 -4 -41 -12 -82 -29 -156 -15 -217 43 -27 25 -55 88 -44 99 3 3 64 5 136 6
l130 0 0 28 0 29 -140 0 -140 0 0 30 0 30 140 0 140 0 0 30 0 30 -135 0 c-74
0 -135 2 -135 5 0 15 33 81 48 98 47 52 138 70 214 43 l36 -13 11 43 c6 24 11
45 11 48 0 3 -17 10 -37 15 -52 15 -170 13 -216 -3z"/>
<path d="M2811 818 c7 -13 41 -73 75 -134 35 -61 64 -114 64 -118 0 -3 -25 -6
-55 -6 -54 0 -55 0 -55 -30 l0 -30 75 0 75 0 0 -35 0 -35 -75 0 -75 0 0 -32 0
-33 72 0 73 0 3 -77 3 -78 67 0 67 0 0 78 0 77 78 -1 77 -2 0 34 0 33 -77 3
-78 3 0 30 0 30 78 3 77 3 0 29 c0 30 -1 30 -55 30 -30 0 -55 4 -55 9 0 5 36
68 80 140 l79 131 -77 0 -77 0 -55 -130 c-30 -71 -57 -126 -60 -122 -3 4 -17
34 -30 67 -13 33 -36 88 -51 123 l-28 62 -76 0 c-75 0 -76 0 -64 -22z"/>
<path d="M2205 698 c3 -13 10 -45 15 -73 6 -27 13 -57 16 -66 4 -14 -18 -22
-131 -50 l-135 -33 32 -17 c61 -31 233 -87 339 -109 63 -14 156 -24 237 -28
l134 -5 -7 54 c-4 30 -14 101 -23 159 l-17 105 -95 7 c-105 7 -208 27 -299 58
-74 25 -72 25 -66 -2z"/>
</g>
</svg>
